<svg width="14" height="14" viewBox="0 0 14 14" fill="none" xmlns="http://www.w3.org/2000/svg">
<path fill-rule="evenodd" clip-rule="evenodd" d="M13.4001 7.2754C13.4001 7.70822 13.356 8.14044 13.2695 8.56176C13.1851 8.97306 13.0601 9.37686 12.8963 9.76288C12.7363 10.1421 12.5379 10.5075 12.306 10.8482C12.0776 11.1869 11.8144 11.5045 11.5253 11.7941C11.2356 12.0825 10.9169 12.3449 10.5784 12.5743C10.2365 12.8046 9.87059 13.0027 9.49118 13.1635C9.10461 13.3264 8.69987 13.4512 8.28892 13.5354C7.86705 13.6222 7.43325 13.6665 6.99981 13.6665C6.56604 13.6665 6.13227 13.6222 5.711 13.5354C5.29942 13.4512 4.89471 13.3264 4.50844 13.1635C4.12905 13.0027 3.76277 12.8046 3.42088 12.5743C3.08243 12.3449 2.76366 12.0825 2.47458 11.7941C2.1852 11.5045 1.92205 11.1869 1.69329 10.8482C1.46265 10.5075 1.26388 10.142 1.10326 9.76288C0.939478 9.37686 0.814177 8.97304 0.729482 8.56176C0.64386 8.14044 0.600098 7.70822 0.600098 7.2754C0.600098 6.84226 0.643835 6.40912 0.729507 5.98873C0.814202 5.57742 0.939503 5.173 1.10328 4.7876C1.2639 4.40814 1.46268 4.04241 1.69332 3.70162C1.92207 3.36272 2.18523 3.04565 2.47461 2.75573C2.76369 2.46737 3.08245 2.20557 3.42091 1.97652C3.76279 1.74526 4.12908 1.54713 4.50846 1.38609C4.89474 1.22284 5.29942 1.09772 5.71102 1.0141C6.13229 0.927977 6.56606 0.884277 6.99984 0.884277C7.43328 0.884277 7.86705 0.927977 8.28895 1.0141C8.6999 1.09775 9.10461 1.22287 9.49121 1.38609C9.87059 1.5471 10.2366 1.74526 10.5784 1.97652C10.9169 2.20557 11.2357 2.46737 11.5254 2.75573C11.8144 3.04565 12.0776 3.36272 12.306 3.70162C12.5379 4.04241 12.7363 4.40816 12.8963 4.7876C13.0601 5.173 13.1851 5.57742 13.2695 5.98873C13.356 6.40912 13.4001 6.84226 13.4001 7.2754ZM4.66779 2.33881C3.14363 3.05752 2.00607 4.45993 1.65136 6.15009C1.79545 6.15134 4.07307 6.18005 6.69726 5.48381C5.75128 3.80551 4.74061 2.43589 4.66779 2.33881ZM7.15009 6.32424C4.33589 7.16554 1.63543 7.105 1.53856 7.10128C1.53698 7.15993 1.53417 7.21672 1.53417 7.2754C1.53417 8.67749 2.06389 9.95571 2.93456 10.9222C2.93268 10.9194 4.4284 8.26963 7.37792 7.31722C7.44916 7.29351 7.52168 7.27227 7.59355 7.25169C7.45638 6.94151 7.30665 6.63069 7.15009 6.32424ZM10.6094 3.17922C9.6471 2.33194 8.38362 1.818 6.99979 1.818C6.5557 1.818 6.12474 1.87168 5.71191 1.97091C5.79377 2.08077 6.82041 3.44074 7.75513 5.15458C9.81744 4.38255 10.5959 3.19918 10.6094 3.17922ZM7.96612 8.15605C7.95394 8.16008 7.94177 8.16355 7.92987 8.16791C4.70507 9.2905 3.65196 11.5528 3.64057 11.5775C4.56845 12.2981 5.73226 12.7328 6.99983 12.7328C7.75672 12.7328 8.47769 12.5789 9.13366 12.3003C9.05272 11.8234 8.73521 10.152 7.96612 8.15605ZM10.054 11.8016C11.2812 10.9746 12.1528 9.66147 12.396 8.14042C12.2835 8.10422 10.7543 7.62082 8.99018 7.90326C9.70709 9.87054 9.99838 11.4727 10.054 11.8016ZM8.17582 5.96784C8.30268 6.22811 8.42552 6.49301 8.53895 6.75923C8.57928 6.85474 8.61866 6.94836 8.65709 7.04197C10.5347 6.80603 12.3845 7.20298 12.4635 7.21919C12.451 5.92539 11.9876 4.73797 11.2207 3.80834C11.2104 3.82298 10.3338 5.08779 8.17582 5.96784Z" fill="white"/>
</svg>
