<svg width="14" height="14" viewBox="0 0 14 14" fill="none" xmlns="http://www.w3.org/2000/svg">
<path fill-rule="evenodd" clip-rule="evenodd" d="M7.0007 0.884277C5.26255 0.884277 5.04441 0.891877 4.36174 0.922944C3.6804 0.954145 3.21533 1.06201 2.80839 1.22028C2.38745 1.38375 2.03038 1.60242 1.67464 1.95829C1.31864 2.31403 1.09997 2.6711 0.935968 3.0919C0.7773 3.49897 0.669298 3.96418 0.638631 4.64525C0.608098 5.32792 0.600098 5.54619 0.600098 7.28434C0.600098 9.02249 0.607831 9.23996 0.638765 9.92264C0.670098 10.604 0.777966 11.069 0.936101 11.476C1.0997 11.8969 1.31837 12.254 1.67424 12.6097C2.02985 12.9657 2.38692 13.1849 2.80759 13.3484C3.21479 13.5067 3.68 13.6145 4.3612 13.6457C5.04388 13.6768 5.26188 13.6844 6.9999 13.6844C8.73818 13.6844 8.95565 13.6768 9.63833 13.6457C10.3197 13.6145 10.7853 13.5067 11.1925 13.3484C11.6133 13.1849 11.9698 12.9657 12.3254 12.6097C12.6814 12.254 12.9001 11.8969 13.0641 11.4761C13.2214 11.069 13.3294 10.6038 13.3614 9.92277C13.3921 9.2401 13.4001 9.02249 13.4001 7.28434C13.4001 5.54619 13.3921 5.32806 13.3614 4.64538C13.3294 3.96404 13.2214 3.49897 13.0641 3.09203C12.9001 2.6711 12.6814 2.31403 12.3254 1.95829C11.9694 1.60228 11.6134 1.38362 11.1921 1.22028C10.7841 1.06201 10.3187 0.954145 9.63739 0.922944C8.95472 0.891877 8.73738 0.884277 6.9987 0.884277H7.0007ZM6.42653 2.0376C6.59693 2.03734 6.78707 2.0376 7.00067 2.0376C8.70949 2.0376 8.91202 2.04374 9.58683 2.07441C10.2108 2.10294 10.5495 2.20721 10.7751 2.29481C11.0738 2.41081 11.2867 2.54948 11.5106 2.77348C11.7346 2.99748 11.8733 3.21082 11.9895 3.50949C12.0771 3.73482 12.1815 4.07349 12.2099 4.6975C12.2406 5.37217 12.2473 5.57484 12.2473 7.28286C12.2473 8.99088 12.2406 9.19355 12.2099 9.86822C12.1814 10.4922 12.0771 10.8309 11.9895 11.0562C11.8735 11.3549 11.7346 11.5676 11.5106 11.7914C11.2866 12.0154 11.0739 12.1541 10.7751 12.2701C10.5498 12.3581 10.2108 12.4621 9.58683 12.4906C8.91216 12.5213 8.70949 12.528 7.00067 12.528C5.29172 12.528 5.08918 12.5213 4.41451 12.4906C3.7905 12.4618 3.45183 12.3576 3.2261 12.27C2.92743 12.154 2.71409 12.0153 2.49009 11.7913C2.26609 11.5673 2.12742 11.3545 2.01115 11.0557C1.92355 10.8304 1.81915 10.4917 1.79075 9.86769C1.76008 9.19301 1.75395 8.99034 1.75395 7.28126C1.75395 5.57217 1.76008 5.37057 1.79075 4.6959C1.81928 4.07189 1.92355 3.73322 2.01115 3.50762C2.12715 3.20895 2.26609 2.99561 2.49009 2.77161C2.71409 2.54761 2.92743 2.40894 3.2261 2.29267C3.4517 2.20467 3.7905 2.10067 4.41451 2.07201C5.00492 2.04534 5.23372 2.03734 6.42653 2.036V2.0376ZM10.417 3.10029C9.99297 3.10029 9.64897 3.44389 9.64897 3.86803C9.64897 4.29203 9.99297 4.63603 10.417 4.63603C10.841 4.63603 11.185 4.29203 11.185 3.86803C11.185 3.44402 10.841 3.10029 10.417 3.10029ZM7.00071 3.99763C5.18562 3.99763 3.71401 5.46924 3.71401 7.28433C3.71401 9.09941 5.18562 10.5704 7.00071 10.5704C8.81579 10.5704 10.2869 9.09941 10.2869 7.28433C10.2869 5.46924 8.81579 3.99763 7.00071 3.99763ZM7.00068 5.15097C8.17883 5.15097 9.13404 6.10605 9.13404 7.28433C9.13404 8.46247 8.17883 9.41768 7.00068 9.41768C5.8224 9.41768 4.86733 8.46247 4.86733 7.28433C4.86733 6.10605 5.8224 5.15097 7.00068 5.15097Z" fill="white"/>
</svg>
