<svg width="105" height="28" viewBox="0 0 105 28" fill="none" xmlns="http://www.w3.org/2000/svg">
<g clip-path="url(#clip0_2_2327)">
<path d="M24.2176 4.02083H28.6876L22.6049 24.4375H18.7856L14.3438 13.0042L10.0718 24.4375H6.25243L0 4.02083H4.55494L8.43088 17.5833L13.6365 4.225H15.0794L20.4265 17.5833L24.2176 4.02083Z" fill="#8C30F5"/>
<path d="M42.2156 8.65833H45.2994V24.4083H42.0459L41.7064 23.0083C40.3107 24.2527 38.6603 24.875 36.7554 24.875C34.4543 24.875 32.5399 24.0875 31.0122 22.5125C29.5033 20.918 28.7488 18.925 28.7488 16.5333C28.7488 14.1611 29.5033 12.1875 31.0122 10.6125C32.5399 9.03749 34.4543 8.24999 36.7554 8.24999C38.698 8.24999 40.3672 8.89166 41.763 10.175L42.2156 8.65833ZM34.096 19.625C34.8881 20.4416 35.8783 20.85 37.0666 20.85C38.2737 20.85 39.2733 20.4416 40.0655 19.625C40.8576 18.8083 41.2537 17.7778 41.2537 16.5333C41.2537 15.2889 40.8576 14.2583 40.0655 13.4417C39.2733 12.625 38.2831 12.2167 37.0949 12.2167C36.3027 12.2167 35.586 12.4111 34.9447 12.8C34.3223 13.1694 33.8319 13.6847 33.4735 14.3458C33.1152 14.9875 32.936 15.7166 32.936 16.5333C32.936 17.7778 33.3226 18.8083 34.096 19.625Z" fill="#8C30F5"/>
<path d="M57.5901 8.24999C59.91 8.24999 61.8244 9.03749 63.3333 10.6125C64.861 12.1875 65.6249 14.1708 65.6249 16.5625C65.6249 18.9541 64.861 20.9375 63.3333 22.5125C61.8244 24.0875 59.91 24.875 57.5901 24.875C55.7606 24.875 54.1668 24.2916 52.8088 23.125L52.3279 24.4375H49.2724V3H53.4029V9.53332C54.6289 8.67777 56.0246 8.24999 57.5901 8.24999ZM54.28 19.625C55.0721 20.4416 56.0624 20.85 57.2506 20.85C58.4577 20.85 59.4479 20.4416 60.2212 19.625C61.0134 18.8083 61.4094 17.7875 61.4094 16.5625C61.4094 15.7458 61.2303 15.0069 60.8719 14.3458C60.5324 13.6847 60.042 13.1694 59.4008 12.8C58.7595 12.4305 58.0428 12.2458 57.2506 12.2458C56.4773 12.2458 55.77 12.4305 55.1287 12.8C54.4875 13.1694 53.9876 13.6847 53.6293 14.3458C53.2709 15.0069 53.0917 15.7458 53.0917 16.5625C53.0917 17.7875 53.4878 18.8083 54.28 19.625Z" fill="#8C30F5"/>
<path d="M89.6308 3H89.3494C88.2727 3 87.3999 3.87284 87.3999 4.94954C87.3999 6.02624 88.2727 6.89908 89.3494 6.89908H89.6308C90.7075 6.89908 91.5804 6.02624 91.5804 4.94954C91.5804 3.87284 90.7075 3 89.6308 3Z" fill="#FE9A22"/>
<path d="M76.2307 8.53322C78.5786 8.53322 80.5161 9.3073 82.0432 10.8555C83.5894 12.4036 84.3625 14.3532 84.3625 16.7041C84.3625 19.055 83.5894 21.0045 82.0432 22.5527C80.5161 24.1009 78.5786 24.8749 76.2307 24.8749C74.3791 24.8749 72.7661 24.3015 71.3917 23.1548L70.9049 24.4449H67.8125V3.37268H71.993V9.79469C73.2337 8.95371 74.6463 8.53322 76.2307 8.53322ZM72.8806 19.7144C73.6823 20.5171 74.6845 20.9185 75.8871 20.9185C77.1088 20.9185 78.1109 20.5171 78.8936 19.7144C79.6953 18.9116 80.0962 17.9082 80.0962 16.7041C80.0962 15.9013 79.9148 15.175 79.5521 14.5252C79.2085 13.8753 78.7122 13.3688 78.0632 13.0057C77.4142 12.6425 76.6888 12.461 75.8871 12.461C75.1044 12.461 74.3886 12.6425 73.7396 13.0057C73.0906 13.3688 72.5847 13.8753 72.222 14.5252C71.8593 15.175 71.678 15.9013 71.678 16.7041C71.678 17.9082 72.0789 18.9116 72.8806 19.7144Z" fill="#FE9A22"/>
<path d="M87.3581 24.4449V8.96327H91.5385V24.4449H87.3581Z" fill="#FE9A22"/>
<path d="M103.11 20.7178H105V24.4449H102.051C100.924 24.4449 99.9414 24.2251 99.1015 23.7855C98.2807 23.3459 97.6508 22.7152 97.2117 21.8933C96.7727 21.0523 96.5531 20.0584 96.5531 18.9116V12.3176H93.7471V11.4289L99.8746 4.92084H100.648V8.96327H104.914V12.3176H100.734V18.3669C100.734 19.1123 100.934 19.6953 101.335 20.1158C101.755 20.5171 102.347 20.7178 103.11 20.7178Z" fill="#FE9A22"/>
</g>
<defs>
<clipPath id="clip0_2_2327">
<rect width="105" height="28" fill="white"/>
</clipPath>
</defs>
</svg>
