<svg width="16" height="16" viewBox="0 0 16 16" fill="none" xmlns="http://www.w3.org/2000/svg">
<path d="M4.0461 1.36403L2.69945 1.51366C1.76976 1.61696 1.05504 2.36083 1.20903 3.28349C1.48568 4.941 2.40687 7.70203 5.35188 10.647C8.29683 13.592 11.0582 14.5136 12.716 14.7905C13.6388 14.9446 14.3829 14.2299 14.4862 13.3L14.6358 11.9537C14.7239 11.1611 14.3326 10.3919 13.6401 9.99626L12.671 9.44266C11.9679 9.04098 11.0829 9.15955 10.5103 9.73216C10.0857 10.1568 9.47204 10.336 8.94197 10.0538C8.48375 9.80996 7.88557 9.40949 7.23795 8.76187C6.59034 8.11426 6.18987 7.51608 5.94599 7.05786C5.66387 6.52779 5.84307 5.91411 6.26767 5.48952C6.84028 4.91691 6.95885 4.03192 6.55716 3.32878L6.00357 2.35973C5.60797 1.66723 4.83876 1.27596 4.0461 1.36403Z" stroke="#8C30F5" stroke-width="1.5" stroke-linecap="round" stroke-linejoin="round"/>
</svg>
