<svg width="12" height="11" viewBox="0 0 12 11" fill="none" xmlns="http://www.w3.org/2000/svg">
<path fill-rule="evenodd" clip-rule="evenodd" d="M5.6406 3.03788L5.66578 3.45311L5.2461 3.40226C3.71843 3.20736 2.38383 2.54639 1.25067 1.43629L0.696681 0.88548L0.553988 1.29223C0.251813 2.19895 0.444869 3.15652 1.0744 3.80054C1.41015 4.15645 1.33461 4.2073 0.755438 3.99545C0.553988 3.92765 0.377719 3.87681 0.360931 3.90223C0.302175 3.96155 0.503625 4.73269 0.663106 5.03775C0.881344 5.46145 1.32621 5.87668 1.81305 6.12243L2.22434 6.31733L1.73751 6.3258C1.26746 6.3258 1.25067 6.33428 1.30103 6.51223C1.46891 7.06304 2.13201 7.64775 2.87066 7.90197L3.39108 8.07992L2.93781 8.35109C2.26631 8.7409 1.4773 8.96122 0.688288 8.97817C0.310569 8.98664 0 9.02054 0 9.04596C0 9.1307 1.02404 9.60525 1.61999 9.79168C3.40786 10.3425 5.53148 10.1052 7.1263 9.1646C8.25945 8.49515 9.39261 7.16473 9.92142 5.87668C10.2068 5.19028 10.4922 3.93613 10.4922 3.33447C10.4922 2.94467 10.5174 2.89382 10.9874 2.42775C11.2644 2.15658 11.5246 1.85999 11.575 1.77525C11.6589 1.61425 11.6505 1.61425 11.2224 1.7583C10.509 2.01252 10.4083 1.97863 10.7608 1.5973C11.021 1.32613 11.3316 0.834635 11.3316 0.690577C11.3316 0.665155 11.2057 0.707525 11.063 0.783791C10.9119 0.868532 10.5761 0.995642 10.3243 1.07191L9.87105 1.21597L9.45976 0.936324C9.23313 0.783791 8.91417 0.614311 8.74629 0.563467C8.31821 0.44483 7.6635 0.461779 7.27738 0.597363C6.22816 0.978694 5.56506 1.96168 5.6406 3.03788Z" fill="white"/>
</svg>
