<svg width="14" height="11" viewBox="0 0 14 11" fill="none" xmlns="http://www.w3.org/2000/svg">
<path fill-rule="evenodd" clip-rule="evenodd" d="M12.0009 1.15894C12.5517 1.31007 12.9854 1.75538 13.1326 2.32089C13.4001 3.3458 13.4001 5.48428 13.4001 5.48428C13.4001 5.48428 13.4001 7.62268 13.1326 8.64767C12.9854 9.21317 12.5517 9.65848 12.0009 9.80969C11.0028 10.0843 7.0001 10.0843 7.0001 10.0843C7.0001 10.0843 2.99741 10.0843 1.99923 9.80969C1.44846 9.65848 1.01472 9.21317 0.867516 8.64767C0.600098 7.62268 0.600098 5.48428 0.600098 5.48428C0.600098 5.48428 0.600098 3.3458 0.867516 2.32089C1.01472 1.75538 1.44846 1.31007 1.99923 1.15894C2.99741 0.884277 7.0001 0.884277 7.0001 0.884277C7.0001 0.884277 11.0028 0.884277 12.0009 1.15894ZM5.80011 3.68423V7.68424L9.00011 5.68431L5.80011 3.68423Z" fill="white"/>
</svg>
